<svg width="1092" height="1092" viewBox="0 0 1092 1092" fill="none" xmlns="http://www.w3.org/2000/svg">
<rect width="1092" height="1092" fill="black"/>
<path d="M358.751 784C356.569 777.611 354.309 771.299 351.972 765.066C349.634 758.832 347.375 752.443 345.193 745.898H276.937C274.755 752.443 272.496 758.91 270.158 765.3C267.976 771.533 265.795 777.767 263.613 784H232.991C239.069 766.702 244.835 750.729 250.289 736.08C255.743 721.432 261.042 707.562 266.184 694.472C271.483 681.382 276.703 668.915 281.846 657.072C286.988 645.228 292.287 633.54 297.741 622.008H325.558C331.012 633.54 336.31 645.228 341.453 657.072C346.596 668.915 351.738 681.382 356.881 694.472C362.179 707.562 367.556 721.432 373.01 736.08C378.62 750.729 384.464 766.702 390.541 784H358.751ZM311.065 653.332C307.481 661.591 303.351 671.642 298.676 683.486C294.157 695.329 289.404 708.186 284.417 722.055H337.713C332.726 708.186 327.895 695.251 323.22 683.252C318.545 671.253 314.493 661.279 311.065 653.332ZM452.157 786.338C443.742 786.182 436.73 785.247 431.12 783.532C425.665 781.818 421.302 779.403 418.029 776.286C414.757 773.014 412.419 769.04 411.017 764.365C409.77 759.534 409.147 754.079 409.147 748.002V607.282L437.431 602.607V742.626C437.431 746.054 437.665 748.937 438.132 751.274C438.756 753.612 439.768 755.638 441.171 757.352C442.574 758.91 444.444 760.157 446.781 761.092C449.274 761.871 452.391 762.495 456.131 762.962L452.157 786.338ZM560.123 723.458C560.123 710.835 557.24 701.017 551.474 694.005C545.864 686.992 536.747 683.486 524.124 683.486C521.475 683.486 518.67 683.642 515.709 683.953C512.904 684.109 510.099 684.577 507.294 685.356V755.248C509.788 756.962 513.06 758.599 517.112 760.157C521.319 761.56 525.761 762.261 530.436 762.261C540.721 762.261 548.201 758.755 552.876 751.742C557.707 744.729 560.123 735.301 560.123 723.458ZM589.108 722.99C589.108 732.34 587.861 740.911 585.368 748.703C583.03 756.495 579.602 763.196 575.083 768.806C570.564 774.416 564.876 778.779 558.019 781.896C551.318 785.013 543.682 786.571 535.111 786.571C529.345 786.571 524.047 785.87 519.216 784.468C514.385 783.065 510.411 781.507 507.294 779.792V827.244H479.01V665.72C484.776 664.162 491.866 662.682 500.282 661.279C508.697 659.877 517.579 659.175 526.929 659.175C536.591 659.175 545.24 660.656 552.876 663.617C560.512 666.578 566.979 670.863 572.278 676.473C577.732 681.927 581.862 688.628 584.667 696.576C587.628 704.368 589.108 713.173 589.108 722.99ZM618.258 784V607.282L646.542 602.607V663.149C649.659 662.058 653.243 661.123 657.295 660.344C661.502 659.565 665.632 659.175 669.684 659.175C679.501 659.175 687.605 660.578 693.994 663.383C700.539 666.032 705.76 669.85 709.656 674.837C713.552 679.668 716.279 685.512 717.837 692.368C719.551 699.225 720.408 706.861 720.408 715.276V784H692.124V719.718C692.124 713.173 691.657 707.64 690.722 703.121C689.943 698.446 688.54 694.706 686.514 691.901C684.644 688.94 682.073 686.836 678.8 685.59C675.528 684.187 671.476 683.486 666.645 683.486C662.905 683.486 659.087 683.875 655.191 684.655C651.295 685.434 648.412 686.135 646.542 686.758V784H618.258ZM797.321 764.131C806.048 764.131 812.671 763.663 817.19 762.728V731.405C815.632 730.938 813.372 730.47 810.411 730.003C807.45 729.535 804.178 729.302 800.593 729.302C797.477 729.302 794.282 729.535 791.009 730.003C787.893 730.47 785.01 731.327 782.361 732.574C779.867 733.821 777.841 735.613 776.283 737.95C774.725 740.132 773.945 742.937 773.945 746.366C773.945 753.067 776.049 757.742 780.257 760.391C784.464 762.884 790.152 764.131 797.321 764.131ZM794.983 658.708C804.333 658.708 812.203 659.877 818.592 662.214C824.982 664.552 830.046 667.824 833.786 672.032C837.682 676.239 840.409 681.382 841.968 687.46C843.682 693.381 844.539 699.926 844.539 707.095V781.195C840.176 782.13 833.553 783.221 824.67 784.468C815.943 785.87 806.048 786.571 794.983 786.571C787.659 786.571 780.958 785.87 774.88 784.468C768.803 783.065 763.582 780.805 759.219 777.689C755.011 774.572 751.661 770.52 749.167 765.533C746.83 760.547 745.661 754.391 745.661 747.067C745.661 740.054 746.986 734.132 749.635 729.302C752.44 724.471 756.18 720.575 760.855 717.614C765.53 714.497 770.907 712.315 776.984 711.069C783.218 709.666 789.685 708.965 796.386 708.965C799.503 708.965 802.775 709.199 806.203 709.666C809.632 709.978 813.294 710.601 817.19 711.536V706.861C817.19 703.589 816.8 700.472 816.021 697.511C815.242 694.55 813.839 691.979 811.814 689.797C809.944 687.46 807.372 685.667 804.1 684.421C800.983 683.174 797.009 682.551 792.178 682.551C785.633 682.551 779.633 683.018 774.179 683.953C768.725 684.888 764.284 685.979 760.855 687.226L757.349 664.318C760.933 663.071 766.154 661.825 773.01 660.578C779.867 659.331 787.191 658.708 794.983 658.708Z" fill="white"/>
<path d="M441.666 938.1V949H397.866V879.7H410.466V938.1H441.666ZM493.584 947.4C491.251 948 488.218 948.6 484.484 949.2C480.751 949.867 476.651 950.2 472.184 950.2C467.984 950.2 464.451 949.6 461.584 948.4C458.784 947.2 456.518 945.533 454.784 943.4C453.118 941.267 451.918 938.733 451.184 935.8C450.451 932.8 450.084 929.533 450.084 926V896.7H462.184V924.1C462.184 929.7 462.984 933.7 464.584 936.1C466.251 938.5 469.118 939.7 473.184 939.7C474.651 939.7 476.184 939.633 477.784 939.5C479.451 939.367 480.684 939.2 481.484 939V896.7H493.584V947.4ZM538.785 921.5C538.785 916.033 538.085 912.1 536.685 909.7C535.352 907.233 532.818 906 529.085 906C527.752 906 526.285 906.1 524.685 906.3C523.085 906.5 521.885 906.667 521.085 906.8V949H508.985V898.4C511.318 897.733 514.352 897.1 518.085 896.5C521.885 895.9 525.885 895.6 530.085 895.6C533.685 895.6 536.618 896.067 538.885 897C541.218 897.933 543.152 899.167 544.685 900.7C545.418 900.167 546.352 899.6 547.485 899C548.618 898.4 549.885 897.867 551.285 897.4C552.685 896.867 554.152 896.433 555.685 896.1C557.285 895.767 558.885 895.6 560.485 895.6C564.552 895.6 567.885 896.2 570.485 897.4C573.152 898.533 575.218 900.167 576.685 902.3C578.218 904.367 579.252 906.9 579.785 909.9C580.385 912.833 580.685 916.067 580.685 919.6V949H568.585V921.5C568.585 916.033 567.918 912.1 566.585 909.7C565.252 907.233 562.685 906 558.885 906C556.952 906 555.118 906.333 553.385 907C551.652 907.6 550.352 908.2 549.485 908.8C550.018 910.467 550.385 912.233 550.585 914.1C550.785 915.967 550.885 917.967 550.885 920.1V949H538.785V921.5ZM592.609 923.1C592.609 918.5 593.275 914.467 594.609 911C596.009 907.533 597.842 904.667 600.109 902.4C602.375 900.067 604.975 898.333 607.909 897.2C610.842 896 613.842 895.4 616.909 895.4C624.109 895.4 629.709 897.633 633.709 902.1C637.775 906.567 639.809 913.233 639.809 922.1C639.809 922.767 639.775 923.533 639.709 924.4C639.709 925.2 639.675 925.933 639.609 926.6H605.109C605.442 930.8 606.909 934.067 609.509 936.4C612.175 938.667 616.009 939.8 621.009 939.8C623.942 939.8 626.609 939.533 629.009 939C631.475 938.467 633.409 937.9 634.809 937.3L636.409 947.2C635.742 947.533 634.809 947.9 633.609 948.3C632.475 948.633 631.142 948.933 629.609 949.2C628.142 949.533 626.542 949.8 624.809 950C623.075 950.2 621.309 950.3 619.509 950.3C614.909 950.3 610.909 949.633 607.509 948.3C604.109 946.9 601.309 945 599.109 942.6C596.909 940.133 595.275 937.267 594.209 934C593.142 930.667 592.609 927.033 592.609 923.1ZM627.709 917.7C627.709 916.033 627.475 914.467 627.009 913C626.542 911.467 625.842 910.167 624.909 909.1C624.042 907.967 622.942 907.1 621.609 906.5C620.342 905.833 618.809 905.5 617.009 905.5C615.142 905.5 613.509 905.867 612.109 906.6C610.709 907.267 609.509 908.167 608.509 909.3C607.575 910.433 606.842 911.733 606.309 913.2C605.775 914.667 605.409 916.167 605.209 917.7H627.709ZM652.638 898.4C654.971 897.733 658.004 897.1 661.738 896.5C665.471 895.9 669.604 895.6 674.138 895.6C678.404 895.6 681.971 896.2 684.838 897.4C687.704 898.533 689.971 900.167 691.638 902.3C693.371 904.367 694.571 906.9 695.238 909.9C695.971 912.833 696.337 916.067 696.337 919.6V949H684.238V921.5C684.238 918.7 684.038 916.333 683.638 914.4C683.304 912.4 682.704 910.8 681.838 909.6C681.038 908.333 679.904 907.433 678.438 906.9C677.038 906.3 675.304 906 673.238 906C671.704 906 670.104 906.1 668.438 906.3C666.771 906.5 665.538 906.667 664.738 906.8V949H652.638V898.4Z" fill="#161616"/>
<path fill-rule="evenodd" clip-rule="evenodd" d="M674.419 372.854C674.419 444.018 616.729 501.708 545.565 501.708C477.322 501.708 421.469 448.655 417 381.543L519.497 381.543L519.723 381.364L519.724 381.363L519.725 381.362L519.728 381.36L519.728 381.36C530.964 372.455 552.276 355.563 553.262 353.985C554.369 352.214 553.765 349.258 553.386 347.406C553.34 347.181 553.298 346.973 553.262 346.785C551.027 343.64 546.41 337.053 545.814 335.861C545.218 334.669 543.248 335.696 542.338 336.358L528.282 364.164H417C421.469 297.052 477.322 244 545.565 244C616.729 244 674.419 301.69 674.419 372.854ZM559.965 356.964L584.048 392.716C584.213 393.874 583.75 396.092 580.572 395.695C577.394 395.298 556.572 386.095 546.559 381.543C545.648 380.468 544.225 377.422 545.814 373.847C547.403 370.272 555.91 361.102 559.965 356.964ZM572.379 397.929L506.09 412.081C504.302 411.684 504.518 409.267 504.849 408.109C507.083 403.722 512.148 394.305 514.531 391.723C516.915 389.141 523.469 389.985 526.448 390.729L572.379 397.929Z" fill="white"/>
</svg>
